<?xml version="1.0" encoding="utf-8"?>
<!-- Generator: Adobe Illustrator 15.0.0, SVG Export Plug-In . SVG Version: 6.00 Build 0)  -->
<!DOCTYPE svg PUBLIC "-//W3C//DTD SVG 1.1//EN" "http://www.w3.org/Graphics/SVG/1.1/DTD/svg11.dtd">
<svg version="1.1" id="Calque_1" xmlns="http://www.w3.org/2000/svg" xmlns:xlink="http://www.w3.org/1999/xlink" x="0px" y="0px"
	 width="100px" height="100px" viewBox="0 0 100 100" enable-background="new 0 0 100 100" xml:space="preserve">
<path fill="none" stroke="#F27830" stroke-miterlimit="10" d="M49.146,11.524c-16.865,0-31.343,15.106-31.343,35.179
	c0,19.97,15.938,33.219,33.484,33.219c15.9,0,30.91-15.366,30.91-34.285C82.197,26.985,68.607,11.524,49.146,11.524z"/>
<path fill="none" stroke="#F27830" stroke-miterlimit="10" d="M39.028,65.268l0.221-38.476l11.842-0.121
	c0,0,10.692,0.062,10.515,9.789c-0.182,9.849-8.701,10.211-16.496,9.969c-3.806-0.118-5.981,0-5.981,0"/>
<path fill="none" stroke="#F27830" stroke-miterlimit="10" d="M53.085,46.127c0,0,6.174,2.413,7.616,5.906
	c1.688,4.086-0.089,10.125,1.967,13.309"/>
</svg>
