<?xml version="1.0" encoding="utf-8"?>
<!-- Generator: Adobe Illustrator 13.0.0, SVG Export Plug-In . SVG Version: 6.00 Build 14948)  -->
<!DOCTYPE svg PUBLIC "-//W3C//DTD SVG 1.1//EN" "http://www.w3.org/Graphics/SVG/1.1/DTD/svg11.dtd">
<svg version="1.1" id="ae_lower" xmlns="http://www.w3.org/2000/svg" xmlns:xlink="http://www.w3.org/1999/xlink" x="0px" y="0px"
	 width="100px" height="100px" viewBox="0 0 100 100" enable-background="new 0 0 100 100" xml:space="preserve">
<path fill="none" stroke="#ED7733" stroke-miterlimit="10" d="M48.499,53.135c1.47,0,37.539,0,37.539,0
	c0.588-3.646-1.078-22.479-16.564-22.773c-16.855-0.32-21.447,13.959-21.072,22.773c0.393,9.213,2.959,21.236,12.153,25.546
	c9.409,4.409,19.504,1.96,25.386-6.861"/>
<path fill="none" stroke="#ED7733" stroke-miterlimit="10" d="M15.151,42.875c0.375-10.25,13.25-13.375,19.375-12.625
	c3.879,0.475,14.125,1.75,14,13.5c-0.03,2.82-0.118,6.05-0.19,9.417c0,0-12.81-0.553-17.685-0.032
	c-8.488,0.906-17.434,6.268-16.75,15.367c0.625,8.335,7.297,12.615,15.125,12.373c8.375-0.261,17.544-6.63,21.919-13.531"/>
</svg>
