<?xml version="1.0" encoding="utf-8"?>
<!-- Generator: Adobe Illustrator 13.0.0, SVG Export Plug-In . SVG Version: 6.00 Build 14948)  -->
<!DOCTYPE svg PUBLIC "-//W3C//DTD SVG 1.1//EN" "http://www.w3.org/Graphics/SVG/1.1/DTD/svg11.dtd">
<svg version="1.1" id="Oe_lower" xmlns="http://www.w3.org/2000/svg" xmlns:xlink="http://www.w3.org/1999/xlink" x="0px" y="0px"
	 width="100px" height="100px" viewBox="0 0 100 100" enable-background="new 0 0 100 100" xml:space="preserve">
<path fill="none" stroke="#ED7733" stroke-miterlimit="10" d="M30.727,30.172c-10.012,0-20.674,7.874-20.414,25.623
	c0.259,17.749,11.183,24.954,20.545,25.088c9.359,0.133,21.062-6.272,21.062-24.821C51.922,37.511,41,30.172,30.727,30.172"/>
<path fill="none" stroke="#ED7733" stroke-miterlimit="10" d="M52.055,53.869c1.471,0,37.54,0,37.54,0
	c0.588-3.646-1.078-23.151-16.564-23.445c-16.855-0.32-21.448,15.982-21.073,24.796c0.394,9.213,2.96,19.213,12.154,23.522
	c9.409,4.409,19.504,1.96,25.386-6.861"/>
</svg>
