<?xml version="1.0" encoding="utf-8"?><svg id="RussianLanguage" image-rendering="auto" baseProfile="basic" version="1.1" x="0px" y="0px" width="100" height="100" xmlns="http://www.w3.org/2000/svg" xmlns:xlink="http://www.w3.org/1999/xlink"><g id="Scene-1f13r1" overflow="visible"><path id="Layer1_0_1_STROKES13" stroke="#F17631" stroke-width="1" stroke-linejoin="miter" stroke-linecap="square" stroke-miterlimit="3" fill="none" d="M63,17.8 Q63,18.65 62.4,19.25 61.8,19.85 60.95,19.85 60.1,19.85 59.5,19.25 58.9,18.65 58.9,17.8 58.9,16.95 59.5,16.35 60.1,15.75 60.95,15.75 61.8,15.75 62.4,16.35 63,16.95 63,17.8Z M43.75,17.8 Q43.75,18.65 43.15,19.25 42.55,19.85 41.7,19.85 40.85,19.85 40.25,19.25 39.65,18.65 39.65,17.8 39.65,16.95 40.25,16.35 40.85,15.75 41.7,15.75 42.55,15.75 43.15,16.35 43.75,16.95 43.75,17.8Z M65.85,73.25 Q59.95,79.9 51.15,79.7 42.3,79.45 36.75,72.5 31.2,65.65 31.2,55.85 31.2,54.6 31.3,53.4 31.9,45.15 36.75,39.15 42.3,32.25 50.1,32.25 57.95,32.25 63.45,39.15 68.35,45.25 67.55,53.4 L31.3,53.4"/></g></svg>