<?xml version="1.0" encoding="utf-8"?><svg id="UkranianLanguage" image-rendering="auto" baseProfile="basic" version="1.1" x="0px" y="0px" width="100" height="100" xmlns="http://www.w3.org/2000/svg" xmlns:xlink="http://www.w3.org/1999/xlink"><g id="Scene-1f6r1" overflow="visible"><path id="Layer1_0_1_STROKES6" stroke="#F17631" stroke-width="1" stroke-linejoin="miter" stroke-linecap="square" stroke-miterlimit="3" fill="none" d="M62.4,6.65 Q62.4,7.45 61.8,8 61.25,8.6 60.45,8.6 59.65,8.6 59.05,8 58.5,7.45 58.5,6.65 58.5,5.85 59.05,5.25 59.65,4.7 60.45,4.7 61.25,4.7 61.8,5.25 62.4,5.85 62.4,6.65Z M43.15,6.65 Q43.15,7.45 42.55,8 42,8.6 41.2,8.6 40.4,8.6 39.8,8 39.25,7.45 39.25,6.65 39.25,5.85 39.8,5.25 40.4,4.7 41.2,4.7 42,4.7 42.55,5.25 43.15,5.85 43.15,6.65Z M51,20.5 L51,78.25"/></g></svg>