
<svg xmlns="http://www.w3.org/2000/svg" version="1.1" xmlns:xlink="http://www.w3.org/1999/xlink" preserveAspectRatio="none" x="0px" y="0px" width="100px" height="100px" viewBox="0 0 100 100">
<g id="Scene-1f1r1" overflow="visible">
<path id="Layer0_0_1_STROKES" stroke="#F17631" stroke-width="1" stroke-linejoin="miter" stroke-linecap="square" stroke-miterlimit="3" fill="none" d="
M 63 5.8
Q 63 6.65 62.4 7.25 61.8 7.85 60.95 7.85 60.1 7.85 59.5 7.25 58.9 6.65 58.9 5.8 58.9 4.95 59.5 4.35 60.1 3.75 60.95 3.75 61.8 3.75 62.4 4.35 63 4.95 63 5.8 Z
M 43.75 5.8
Q 43.75 6.65 43.15 7.25 42.55 7.85 41.7 7.85 40.85 7.85 40.25 7.25 39.65 6.65 39.65 5.8 39.65 4.95 40.25 4.35 40.85 3.75 41.7 3.75 42.55 3.75 43.15 4.35 43.75 4.95 43.75 5.8 Z
M 70.15 78.75
L 33 78.75 33 46.9 33 17.15 70.15 17.15
M 33 46.9
L 65.85 46.9"/>
</g>
</svg>
