<?xml version="1.0" encoding="utf-8"?><svg id="UkranianLanguage" image-rendering="auto" baseProfile="basic" version="1.1" x="0px" y="0px" width="100" height="100" xmlns="http://www.w3.org/2000/svg" xmlns:xlink="http://www.w3.org/1999/xlink"><g id="Scene-1f7r1" overflow="visible"><path id="Layer1_0_1_STROKES7" stroke="#F17631" stroke-width="1" stroke-linejoin="miter" stroke-linecap="square" stroke-miterlimit="3" fill="none" d="M62.4,21.65 Q62.4,22.45 61.8,23 61.25,23.6 60.45,23.6 59.65,23.6 59.05,23 58.5,22.45 58.5,21.65 58.5,20.85 59.05,20.25 59.65,19.7 60.45,19.7 61.25,19.7 61.8,20.25 62.4,20.85 62.4,21.65Z M43.15,21.65 Q43.15,22.45 42.55,23 42,23.6 41.2,23.6 40.4,23.6 39.8,23 39.25,22.45 39.25,21.65 39.25,20.85 39.8,20.25 40.4,19.7 41.2,19.7 42,19.7 42.55,20.25 43.15,20.85 43.15,21.65Z M51,33.5 L51,78.25"/></g></svg>