<?xml version="1.0" encoding="utf-8"?>
<!-- Generator: Adobe Illustrator 15.0.0, SVG Export Plug-In . SVG Version: 6.00 Build 0)  -->
<!DOCTYPE svg PUBLIC "-//W3C//DTD SVG 1.1//EN" "http://www.w3.org/Graphics/SVG/1.1/DTD/svg11.dtd">
<svg version="1.1" id="Calque_1" xmlns="http://www.w3.org/2000/svg" xmlns:xlink="http://www.w3.org/1999/xlink" x="0px" y="0px"
	 width="100px" height="100px" viewBox="0 0 100 100" enable-background="new 0 0 100 100" xml:space="preserve">
<path fill="none" stroke="#F27830" stroke-miterlimit="10" d="M20.225,11.258c-6.314,0-11.132,5.317-11.132,13.791
	c0,8.474,3.157,15.121,10.966,15.121s11.797-5.483,11.797-13.459S29.864,11.258,20.225,11.258z"/>
<line fill="none" stroke="#F27830" stroke-miterlimit="10" x1="54.787" y1="18.902" x2="20.724" y2="73.566"/>
<path fill="none" stroke="#F27830" stroke-miterlimit="10" d="M56.013,51.016c-6.314,0-11.133,5.316-11.133,13.791
	c0,8.477,3.155,15.121,10.967,15.121c7.809,0,11.797-5.484,11.797-13.459C67.642,58.492,65.647,51.016,56.013,51.016z"/>
<path fill="none" stroke="#F27830" stroke-miterlimit="10" d="M79.276,51.049c-6.314,0-11.133,5.316-11.133,13.791
	c0,8.477,3.154,15.121,10.967,15.121c7.809,0,11.797-5.484,11.797-13.459C90.905,58.525,88.911,51.049,79.276,51.049z"/>
</svg>
